<mxfile host="app.diagrams.net" modified="2022-09-10T08:12:45.990Z" agent="5.0 (Macintosh; Intel Mac OS X 10_15_7) AppleWebKit/537.36 (KHTML, like Gecko) Chrome/105.0.0.0 Safari/537.36" etag="xwbOfhoa8bR5Fdv1o_4P" version="20.3.0" type="github" pages="3">
  <diagram name="Project Design" id="5f0bae14-7c28-e335-631c-24af17079c00">
    <mxGraphModel dx="2057" dy="1223" grid="1" gridSize="10" guides="1" tooltips="1" connect="1" arrows="1" fold="1" page="1" pageScale="1" pageWidth="827" pageHeight="1169" background="none" math="0" shadow="0">
      <root>
        <mxCell id="0" />
        <mxCell id="1" parent="0" />
        <mxCell id="39150e848f15840c-1" value="&lt;font style=&quot;font-size: 16px;&quot;&gt;&lt;b&gt;Server PC&lt;/b&gt;&lt;/font&gt;" style="verticalAlign=top;align=left;spacingTop=8;spacingLeft=2;spacingRight=12;shape=cube;size=10;direction=south;fontStyle=4;html=1;rounded=0;shadow=0;comic=0;labelBackgroundColor=none;strokeWidth=1;fontFamily=Verdana;fontSize=12" parent="1" vertex="1">
          <mxGeometry x="500" y="160" width="420" height="550" as="geometry" />
        </mxCell>
        <mxCell id="39150e848f15840c-2" value="&lt;b&gt;&lt;font style=&quot;font-size: 16px;&quot;&gt;User PC&lt;/font&gt;&lt;/b&gt;" style="verticalAlign=top;align=left;spacingTop=8;spacingLeft=2;spacingRight=12;shape=cube;size=10;direction=south;fontStyle=4;html=1;rounded=0;shadow=0;comic=0;labelBackgroundColor=none;strokeWidth=1;fontFamily=Verdana;fontSize=12" parent="1" vertex="1">
          <mxGeometry x="1060" y="720" width="360" height="310" as="geometry" />
        </mxCell>
        <mxCell id="F7XPx7EwxCSOAxeQfre4-5" value="&lt;b&gt;백신 엔진&lt;/b&gt;" style="ellipse;whiteSpace=wrap;html=1;rounded=0;shadow=0;comic=0;labelBackgroundColor=none;strokeWidth=1;fontFamily=Verdana;fontSize=12;align=center;" parent="1" vertex="1">
          <mxGeometry x="1070" y="760" width="330" height="150" as="geometry" />
        </mxCell>
        <mxCell id="F7XPx7EwxCSOAxeQfre4-1" value="- 요구사항&amp;nbsp;&lt;br&gt;&lt;ol&gt;&lt;li&gt;사용자가 문서파일을 여는 것을 검출&lt;/li&gt;&lt;li&gt;한번 분석한 파일은 다시 분석하지 않는다.&lt;/li&gt;&lt;li&gt;빠른시간안에 결과를 돌려준다.&lt;/li&gt;&lt;li&gt;새로운 업데이트를&amp;nbsp; 받아 항상 최신의 상태를 유지한다.&lt;/li&gt;&lt;li&gt;서버에서 전달하는 값은 Hash값만 전달한다.&lt;/li&gt;&lt;/ol&gt;" style="shape=note;whiteSpace=wrap;html=1;backgroundOutline=1;darkOpacity=0.05;align=left;" parent="1" vertex="1">
          <mxGeometry x="1190" y="160" width="300" height="140" as="geometry" />
        </mxCell>
        <mxCell id="F7XPx7EwxCSOAxeQfre4-2" value="&lt;font style=&quot;font-size: 16px;&quot;&gt;&lt;b&gt;Engine Build Server&lt;/b&gt;&lt;/font&gt;" style="verticalAlign=top;align=left;spacingTop=8;spacingLeft=2;spacingRight=12;shape=cube;size=10;direction=south;fontStyle=4;html=1;rounded=0;shadow=0;comic=0;labelBackgroundColor=none;strokeWidth=1;fontFamily=Verdana;fontSize=12" parent="1" vertex="1">
          <mxGeometry x="200" y="533.75" width="270" height="176.25" as="geometry" />
        </mxCell>
        <mxCell id="F7XPx7EwxCSOAxeQfre4-4" value="&lt;font style=&quot;font-size: 14px;&quot;&gt;DB&lt;/font&gt;" style="strokeWidth=2;html=1;shape=mxgraph.flowchart.database;whiteSpace=wrap;" parent="1" vertex="1">
          <mxGeometry x="1310" y="800" width="60" height="50" as="geometry" />
        </mxCell>
        <mxCell id="39150e848f15840c-6" value="정적 분석&lt;br&gt;엔진" style="ellipse;whiteSpace=wrap;html=1;rounded=0;shadow=0;comic=0;labelBackgroundColor=none;strokeWidth=1;fontFamily=Verdana;fontSize=12;align=center;" parent="1" vertex="1">
          <mxGeometry x="1080" y="793.75" width="70" height="62.5" as="geometry" />
        </mxCell>
        <mxCell id="F7XPx7EwxCSOAxeQfre4-7" value="문서형 파일&lt;br&gt;(악성, 일반)" style="rounded=0;whiteSpace=wrap;html=1;fontSize=14;" parent="1" vertex="1">
          <mxGeometry x="1175" y="950" width="120" height="60" as="geometry" />
        </mxCell>
        <mxCell id="F7XPx7EwxCSOAxeQfre4-8" value="" style="endArrow=classic;html=1;rounded=0;fontSize=14;entryX=0.5;entryY=1;entryDx=0;entryDy=0;exitX=0.5;exitY=0;exitDx=0;exitDy=0;" parent="1" source="F7XPx7EwxCSOAxeQfre4-7" target="F7XPx7EwxCSOAxeQfre4-5" edge="1">
          <mxGeometry width="50" height="50" relative="1" as="geometry">
            <mxPoint x="1180" y="930" as="sourcePoint" />
            <mxPoint x="1230" y="880" as="targetPoint" />
          </mxGeometry>
        </mxCell>
        <mxCell id="F7XPx7EwxCSOAxeQfre4-14" value="" style="endArrow=classic;html=1;rounded=0;fontSize=14;exitX=0.5;exitY=1;exitDx=0;exitDy=0;" parent="1" source="F7XPx7EwxCSOAxeQfre4-5" target="F7XPx7EwxCSOAxeQfre4-4" edge="1">
          <mxGeometry width="50" height="50" relative="1" as="geometry">
            <mxPoint x="1185" y="900" as="sourcePoint" />
            <mxPoint x="1235" y="850" as="targetPoint" />
            <Array as="points">
              <mxPoint x="1270" y="870" />
            </Array>
          </mxGeometry>
        </mxCell>
        <mxCell id="F7XPx7EwxCSOAxeQfre4-16" value="엔진이 파일을 검출" style="text;strokeColor=none;fillColor=none;spacingLeft=4;spacingRight=4;overflow=hidden;rotatable=0;points=[[0,0.5],[1,0.5]];portConstraint=eastwest;fontSize=12;" parent="1" vertex="1">
          <mxGeometry x="1240" y="920" width="100" height="20" as="geometry" />
        </mxCell>
        <mxCell id="F7XPx7EwxCSOAxeQfre4-17" value="문서 파일이 검사된적&#xa; 있는지 확인&#xa;" style="text;strokeColor=none;fillColor=none;spacingLeft=4;spacingRight=4;overflow=hidden;rotatable=0;points=[[0,0.5],[1,0.5]];portConstraint=eastwest;fontSize=12;" parent="1" vertex="1">
          <mxGeometry x="1280" y="856.25" width="100" height="33.75" as="geometry" />
        </mxCell>
        <mxCell id="F7XPx7EwxCSOAxeQfre4-18" value="" style="endArrow=classic;html=1;rounded=0;fontSize=14;exitX=0;exitY=0.15;exitDx=0;exitDy=0;exitPerimeter=0;entryX=0.964;entryY=0.204;entryDx=0;entryDy=0;entryPerimeter=0;" parent="1" source="F7XPx7EwxCSOAxeQfre4-4" target="39150e848f15840c-6" edge="1">
          <mxGeometry width="50" height="50" relative="1" as="geometry">
            <mxPoint x="960" y="870" as="sourcePoint" />
            <mxPoint x="1010" y="820" as="targetPoint" />
          </mxGeometry>
        </mxCell>
        <mxCell id="F7XPx7EwxCSOAxeQfre4-19" value="정적 엔진에 분석 요청" style="text;strokeColor=none;fillColor=none;spacingLeft=4;spacingRight=4;overflow=hidden;rotatable=0;points=[[0,0.5],[1,0.5]];portConstraint=eastwest;fontSize=12;" parent="1" vertex="1">
          <mxGeometry x="1180" y="776.25" width="120" height="23.75" as="geometry" />
        </mxCell>
        <mxCell id="F7XPx7EwxCSOAxeQfre4-21" value="&lt;b&gt;분석 엔진&lt;/b&gt;" style="ellipse;whiteSpace=wrap;html=1;fontSize=14;" parent="1" vertex="1">
          <mxGeometry x="510" y="206.25" width="370" height="223.75" as="geometry" />
        </mxCell>
        <mxCell id="F7XPx7EwxCSOAxeQfre4-6" value="가상화 엔진" style="ellipse;whiteSpace=wrap;html=1;rounded=0;shadow=0;comic=0;labelBackgroundColor=none;strokeWidth=1;fontFamily=Verdana;fontSize=12;align=center;" parent="1" vertex="1">
          <mxGeometry x="760" y="310" width="105" height="70" as="geometry" />
        </mxCell>
        <mxCell id="F7XPx7EwxCSOAxeQfre4-22" value="업데이트 서버" style="ellipse;whiteSpace=wrap;html=1;rounded=0;shadow=0;comic=0;labelBackgroundColor=none;strokeWidth=1;fontFamily=Verdana;fontSize=12;align=center;" parent="1" vertex="1">
          <mxGeometry x="645" y="470" width="100" height="70" as="geometry" />
        </mxCell>
        <mxCell id="F7XPx7EwxCSOAxeQfre4-23" value="" style="endArrow=classic;html=1;rounded=0;fontSize=16;entryX=0.933;entryY=0.741;entryDx=0;entryDy=0;entryPerimeter=0;" parent="1" source="39150e848f15840c-6" target="F7XPx7EwxCSOAxeQfre4-6" edge="1">
          <mxGeometry width="50" height="50" relative="1" as="geometry">
            <mxPoint x="1140" y="620" as="sourcePoint" />
            <mxPoint x="820" y="430" as="targetPoint" />
          </mxGeometry>
        </mxCell>
        <mxCell id="F7XPx7EwxCSOAxeQfre4-24" value="분석 파일 전송" style="text;strokeColor=none;fillColor=none;spacingLeft=4;spacingRight=4;overflow=hidden;rotatable=0;points=[[0,0.5],[1,0.5]];portConstraint=eastwest;fontSize=12;" parent="1" vertex="1">
          <mxGeometry x="990" y="590" width="80" height="20" as="geometry" />
        </mxCell>
        <mxCell id="F7XPx7EwxCSOAxeQfre4-25" value="" style="endArrow=classic;html=1;rounded=0;fontSize=16;entryX=0;entryY=0.5;entryDx=0;entryDy=0;exitX=1;exitY=1;exitDx=0;exitDy=0;" parent="1" source="F7XPx7EwxCSOAxeQfre4-6" target="39150e848f15840c-6" edge="1">
          <mxGeometry width="50" height="50" relative="1" as="geometry">
            <mxPoint x="770" y="470" as="sourcePoint" />
            <mxPoint x="820" y="420" as="targetPoint" />
          </mxGeometry>
        </mxCell>
        <mxCell id="F7XPx7EwxCSOAxeQfre4-26" value="분석 결과 전송" style="text;strokeColor=none;fillColor=none;spacingLeft=4;spacingRight=4;overflow=hidden;rotatable=0;points=[[0,0.5],[1,0.5]];portConstraint=eastwest;fontSize=12;" parent="1" vertex="1">
          <mxGeometry x="940" y="720" width="80" height="20" as="geometry" />
        </mxCell>
        <mxCell id="F7XPx7EwxCSOAxeQfre4-27" value="DB" style="strokeWidth=2;html=1;shape=mxgraph.flowchart.database;whiteSpace=wrap;fontSize=16;" parent="1" vertex="1">
          <mxGeometry x="550" y="317.5" width="60" height="55" as="geometry" />
        </mxCell>
        <mxCell id="F7XPx7EwxCSOAxeQfre4-32" value="Jenkins" style="ellipse;whiteSpace=wrap;html=1;fontSize=16;" parent="1" vertex="1">
          <mxGeometry x="270" y="580" width="110" height="50" as="geometry" />
        </mxCell>
        <mxCell id="F7XPx7EwxCSOAxeQfre4-33" value="Git" style="ellipse;whiteSpace=wrap;html=1;fontSize=16;" parent="1" vertex="1">
          <mxGeometry x="270" y="650" width="110" height="50" as="geometry" />
        </mxCell>
        <mxCell id="F7XPx7EwxCSOAxeQfre4-34" value="Jenkins&lt;br&gt;Remote Agent" style="ellipse;whiteSpace=wrap;html=1;fontSize=16;" parent="1" vertex="1">
          <mxGeometry x="600" y="596.88" width="190" height="103.12" as="geometry" />
        </mxCell>
        <mxCell id="F7XPx7EwxCSOAxeQfre4-35" value="" style="endArrow=classic;html=1;rounded=0;fontSize=16;exitX=1;exitY=0.5;exitDx=0;exitDy=0;" parent="1" source="F7XPx7EwxCSOAxeQfre4-32" edge="1">
          <mxGeometry width="50" height="50" relative="1" as="geometry">
            <mxPoint x="830" y="690" as="sourcePoint" />
            <mxPoint x="630" y="640" as="targetPoint" />
          </mxGeometry>
        </mxCell>
        <mxCell id="F7XPx7EwxCSOAxeQfre4-36" value="" style="endArrow=classic;html=1;rounded=0;fontSize=16;entryX=0.5;entryY=1;entryDx=0;entryDy=0;" parent="1" target="F7XPx7EwxCSOAxeQfre4-32" edge="1">
          <mxGeometry width="50" height="50" relative="1" as="geometry">
            <mxPoint x="325" y="650" as="sourcePoint" />
            <mxPoint x="370" y="710" as="targetPoint" />
          </mxGeometry>
        </mxCell>
        <mxCell id="F7XPx7EwxCSOAxeQfre4-40" value="가상화 엔진 업데이트" style="text;strokeColor=none;fillColor=none;spacingLeft=4;spacingRight=4;overflow=hidden;rotatable=0;points=[[0,0.5],[1,0.5]];portConstraint=eastwest;fontSize=12;" parent="1" vertex="1">
          <mxGeometry x="760" y="420" width="120" height="20" as="geometry" />
        </mxCell>
        <mxCell id="F7XPx7EwxCSOAxeQfre4-41" value="입데이트 등록" style="text;strokeColor=none;fillColor=none;spacingLeft=4;spacingRight=4;overflow=hidden;rotatable=0;points=[[0,0.5],[1,0.5]];portConstraint=eastwest;fontSize=12;" parent="1" vertex="1">
          <mxGeometry x="700" y="550" width="75" height="20" as="geometry" />
        </mxCell>
        <mxCell id="F7XPx7EwxCSOAxeQfre4-29" value="분석 파일 Hash 값과 결과 저장" style="text;strokeColor=none;fillColor=none;spacingLeft=4;spacingRight=4;overflow=hidden;rotatable=0;points=[[0,0.5],[1,0.5]];portConstraint=eastwest;fontSize=12;" parent="1" vertex="1">
          <mxGeometry x="610" y="352.5" width="170" height="20" as="geometry" />
        </mxCell>
        <mxCell id="F7XPx7EwxCSOAxeQfre4-43" value="" style="endArrow=classic;html=1;rounded=0;fontSize=16;entryX=1;entryY=0.5;entryDx=0;entryDy=0;entryPerimeter=0;exitX=0;exitY=0.5;exitDx=0;exitDy=0;" parent="1" source="F7XPx7EwxCSOAxeQfre4-6" target="F7XPx7EwxCSOAxeQfre4-27" edge="1">
          <mxGeometry width="50" height="50" relative="1" as="geometry">
            <mxPoint x="840" y="760" as="sourcePoint" />
            <mxPoint x="890" y="710" as="targetPoint" />
          </mxGeometry>
        </mxCell>
        <mxCell id="F7XPx7EwxCSOAxeQfre4-44" value="" style="endArrow=classic;html=1;rounded=0;fontSize=16;exitX=1;exitY=0.5;exitDx=0;exitDy=0;entryX=0.5;entryY=0;entryDx=0;entryDy=0;" parent="1" source="F7XPx7EwxCSOAxeQfre4-22" target="F7XPx7EwxCSOAxeQfre4-5" edge="1">
          <mxGeometry width="50" height="50" relative="1" as="geometry">
            <mxPoint x="1100" y="520" as="sourcePoint" />
            <mxPoint x="1240" y="390" as="targetPoint" />
          </mxGeometry>
        </mxCell>
        <mxCell id="F7XPx7EwxCSOAxeQfre4-45" value="업데이트 파일 전송&#xa;" style="text;strokeColor=none;fillColor=none;spacingLeft=4;spacingRight=4;overflow=hidden;rotatable=0;points=[[0,0.5],[1,0.5]];portConstraint=eastwest;fontSize=12;" parent="1" vertex="1">
          <mxGeometry x="800" y="570" width="100" height="20" as="geometry" />
        </mxCell>
        <mxCell id="ArBUw9uQNjtfhf34erWs-3" value="" style="endArrow=classic;html=1;rounded=0;fontSize=16;entryX=0.5;entryY=1;entryDx=0;entryDy=0;exitX=0.5;exitY=0;exitDx=0;exitDy=0;" edge="1" parent="1" source="F7XPx7EwxCSOAxeQfre4-34" target="F7XPx7EwxCSOAxeQfre4-22">
          <mxGeometry width="50" height="50" relative="1" as="geometry">
            <mxPoint x="810" y="670" as="sourcePoint" />
            <mxPoint x="860" y="620" as="targetPoint" />
          </mxGeometry>
        </mxCell>
        <mxCell id="ArBUw9uQNjtfhf34erWs-4" value="" style="endArrow=classic;html=1;rounded=0;fontSize=16;entryX=0.5;entryY=1;entryDx=0;entryDy=0;exitX=0.5;exitY=0;exitDx=0;exitDy=0;" edge="1" parent="1" source="F7XPx7EwxCSOAxeQfre4-22" target="F7XPx7EwxCSOAxeQfre4-21">
          <mxGeometry width="50" height="50" relative="1" as="geometry">
            <mxPoint x="810" y="670" as="sourcePoint" />
            <mxPoint x="860" y="620" as="targetPoint" />
          </mxGeometry>
        </mxCell>
        <mxCell id="ArBUw9uQNjtfhf34erWs-5" value="업데이트&#xa;" style="text;strokeColor=none;fillColor=none;spacingLeft=4;spacingRight=4;overflow=hidden;rotatable=0;points=[[0,0.5],[1,0.5]];portConstraint=eastwest;fontSize=12;" vertex="1" parent="1">
          <mxGeometry x="700" y="440" width="50" height="20" as="geometry" />
        </mxCell>
      </root>
    </mxGraphModel>
  </diagram>
  <diagram id="xelh5Ur8uXmZccJDmje7" name="Component Diagram">
    <mxGraphModel dx="3569" dy="1631" grid="1" gridSize="10" guides="1" tooltips="1" connect="1" arrows="1" fold="1" page="1" pageScale="1" pageWidth="827" pageHeight="1169" math="0" shadow="0">
      <root>
        <mxCell id="0" />
        <mxCell id="1" parent="0" />
        <mxCell id="NKRjGLQI3u6KKWVQXnXZ-1" value="&lt;font style=&quot;font-size: 16px;&quot;&gt;&lt;b&gt;Server PC&lt;/b&gt;&lt;/font&gt;" style="verticalAlign=top;align=left;spacingTop=8;spacingLeft=2;spacingRight=12;shape=cube;size=10;direction=south;fontStyle=4;html=1;rounded=0;shadow=0;comic=0;labelBackgroundColor=none;strokeWidth=1;fontFamily=Verdana;fontSize=12" vertex="1" parent="1">
          <mxGeometry x="-257" y="290" width="300" height="450" as="geometry" />
        </mxCell>
        <mxCell id="NKRjGLQI3u6KKWVQXnXZ-2" value="&lt;font style=&quot;font-size: 16px;&quot;&gt;&lt;b&gt;Client PC&lt;/b&gt;&lt;/font&gt;" style="verticalAlign=top;align=left;spacingTop=8;spacingLeft=2;spacingRight=12;shape=cube;size=10;direction=south;fontStyle=4;html=1;rounded=0;shadow=0;comic=0;labelBackgroundColor=none;strokeWidth=1;fontFamily=Verdana;fontSize=12" vertex="1" parent="1">
          <mxGeometry x="113" y="290" width="300" height="260" as="geometry" />
        </mxCell>
        <mxCell id="NKRjGLQI3u6KKWVQXnXZ-3" value="&lt;font style=&quot;font-size: 16px;&quot;&gt;&lt;b&gt;Engine Build PC&lt;/b&gt;&lt;/font&gt;" style="verticalAlign=top;align=left;spacingTop=8;spacingLeft=2;spacingRight=12;shape=cube;size=10;direction=south;fontStyle=4;html=1;rounded=0;shadow=0;comic=0;labelBackgroundColor=none;strokeWidth=1;fontFamily=Verdana;fontSize=12" vertex="1" parent="1">
          <mxGeometry x="-640" y="290" width="300" height="170" as="geometry" />
        </mxCell>
        <mxCell id="w8OvyUt5W9H-utDS1qOa-2" value="DB" style="strokeWidth=2;html=1;shape=mxgraph.flowchart.database;whiteSpace=wrap;fontSize=16;" vertex="1" parent="1">
          <mxGeometry x="313" y="382.5" width="60" height="60" as="geometry" />
        </mxCell>
        <mxCell id="MONIwzPeViMcVlpB17Zr-2" value="" style="endArrow=classic;startArrow=classic;html=1;rounded=0;fontSize=16;exitX=0.5;exitY=1;exitDx=0;exitDy=0;exitPerimeter=0;entryX=0.5;entryY=0;entryDx=0;entryDy=0;" edge="1" parent="1" source="w8OvyUt5W9H-utDS1qOa-2" target="0T_uLalzNDJKd-mAenRN-4">
          <mxGeometry width="50" height="50" relative="1" as="geometry">
            <mxPoint x="233" y="460" as="sourcePoint" />
            <mxPoint x="243" y="490" as="targetPoint" />
          </mxGeometry>
        </mxCell>
        <mxCell id="jJ_AabKym4eATb_RBZtR-3" value="DB" style="strokeWidth=2;html=1;shape=mxgraph.flowchart.database;whiteSpace=wrap;fontSize=16;" vertex="1" parent="1">
          <mxGeometry x="-237" y="577.5" width="60" height="60" as="geometry" />
        </mxCell>
        <mxCell id="jJ_AabKym4eATb_RBZtR-6" value="" style="endArrow=classic;startArrow=classic;html=1;rounded=0;fontSize=16;entryX=0.5;entryY=0;entryDx=0;entryDy=0;exitX=0.5;exitY=1;exitDx=0;exitDy=0;" edge="1" parent="1" source="0T_uLalzNDJKd-mAenRN-1" target="0T_uLalzNDJKd-mAenRN-12">
          <mxGeometry width="50" height="50" relative="1" as="geometry">
            <mxPoint x="-117" y="660" as="sourcePoint" />
            <mxPoint x="-47" y="620" as="targetPoint" />
          </mxGeometry>
        </mxCell>
        <mxCell id="hTNNahIbQ36J89lPqmI_-2" value="" style="endArrow=classic;html=1;rounded=0;fontSize=16;exitX=0.5;exitY=1;exitDx=0;exitDy=0;entryX=0.5;entryY=0;entryDx=0;entryDy=0;" edge="1" parent="1" source="0T_uLalzNDJKd-mAenRN-5" target="0T_uLalzNDJKd-mAenRN-1">
          <mxGeometry width="50" height="50" relative="1" as="geometry">
            <mxPoint x="-117" y="510" as="sourcePoint" />
            <mxPoint x="-57" y="560" as="targetPoint" />
          </mxGeometry>
        </mxCell>
        <mxCell id="0T_uLalzNDJKd-mAenRN-1" value="백신 서버" style="shape=module;align=left;spacingLeft=20;align=center;verticalAlign=top;fontSize=16;" vertex="1" parent="1">
          <mxGeometry x="-167" y="507.5" width="120" height="35" as="geometry" />
        </mxCell>
        <mxCell id="0T_uLalzNDJKd-mAenRN-4" value="백신 클라이언트" style="shape=module;align=left;spacingLeft=20;align=center;verticalAlign=top;fontSize=16;" vertex="1" parent="1">
          <mxGeometry x="203" y="480" width="120" height="45" as="geometry" />
        </mxCell>
        <mxCell id="0T_uLalzNDJKd-mAenRN-5" value="업데이트 서버" style="shape=module;align=left;spacingLeft=20;align=center;verticalAlign=top;fontSize=16;" vertex="1" parent="1">
          <mxGeometry x="-177" y="377.5" width="120" height="45" as="geometry" />
        </mxCell>
        <mxCell id="0T_uLalzNDJKd-mAenRN-7" value="정적 분석 엔진" style="shape=module;align=left;spacingLeft=20;align=center;verticalAlign=top;fontSize=16;" vertex="1" parent="1">
          <mxGeometry x="133" y="390" width="120" height="45" as="geometry" />
        </mxCell>
        <mxCell id="0T_uLalzNDJKd-mAenRN-8" value="" style="endArrow=classic;startArrow=classic;html=1;rounded=0;fontSize=16;exitX=0.5;exitY=1;exitDx=0;exitDy=0;entryX=0.5;entryY=0;entryDx=0;entryDy=0;" edge="1" parent="1" source="0T_uLalzNDJKd-mAenRN-7" target="0T_uLalzNDJKd-mAenRN-4">
          <mxGeometry width="50" height="50" relative="1" as="geometry">
            <mxPoint x="353" y="452.5" as="sourcePoint" />
            <mxPoint x="273" y="490" as="targetPoint" />
          </mxGeometry>
        </mxCell>
        <mxCell id="0T_uLalzNDJKd-mAenRN-9" value="" style="endArrow=classic;startArrow=classic;html=1;rounded=0;fontSize=16;entryX=0.098;entryY=0.496;entryDx=0;entryDy=0;entryPerimeter=0;exitX=1;exitY=0.5;exitDx=0;exitDy=0;" edge="1" parent="1" source="0T_uLalzNDJKd-mAenRN-1" target="0T_uLalzNDJKd-mAenRN-4">
          <mxGeometry width="50" height="50" relative="1" as="geometry">
            <mxPoint x="-87" y="750" as="sourcePoint" />
            <mxPoint x="-37" y="700" as="targetPoint" />
          </mxGeometry>
        </mxCell>
        <mxCell id="0T_uLalzNDJKd-mAenRN-10" value="" style="endArrow=classic;html=1;rounded=0;fontSize=16;entryX=0.082;entryY=0.53;entryDx=0;entryDy=0;entryPerimeter=0;exitX=1;exitY=0.5;exitDx=0;exitDy=0;" edge="1" parent="1" source="0T_uLalzNDJKd-mAenRN-5" target="0T_uLalzNDJKd-mAenRN-4">
          <mxGeometry width="50" height="50" relative="1" as="geometry">
            <mxPoint x="-87" y="750" as="sourcePoint" />
            <mxPoint x="-37" y="700" as="targetPoint" />
          </mxGeometry>
        </mxCell>
        <mxCell id="0T_uLalzNDJKd-mAenRN-12" value="가상 분석 엔진" style="shape=module;align=left;spacingLeft=20;align=center;verticalAlign=top;fontSize=16;" vertex="1" parent="1">
          <mxGeometry x="-127" y="590" width="120" height="35" as="geometry" />
        </mxCell>
        <mxCell id="0T_uLalzNDJKd-mAenRN-13" value="" style="endArrow=classic;html=1;rounded=0;fontSize=16;entryX=1;entryY=0.5;entryDx=0;entryDy=0;entryPerimeter=0;exitX=0.095;exitY=0.518;exitDx=0;exitDy=0;exitPerimeter=0;" edge="1" parent="1" source="0T_uLalzNDJKd-mAenRN-12" target="jJ_AabKym4eATb_RBZtR-3">
          <mxGeometry width="50" height="50" relative="1" as="geometry">
            <mxPoint x="-87" y="750" as="sourcePoint" />
            <mxPoint x="-37" y="700" as="targetPoint" />
          </mxGeometry>
        </mxCell>
        <mxCell id="0T_uLalzNDJKd-mAenRN-14" value="분석엔진 테스트 서버" style="shape=module;align=left;spacingLeft=20;align=center;verticalAlign=top;fontSize=16;" vertex="1" parent="1">
          <mxGeometry x="-578" y="382.5" width="170" height="40" as="geometry" />
        </mxCell>
        <mxCell id="0T_uLalzNDJKd-mAenRN-16" value="" style="endArrow=classic;html=1;rounded=0;fontSize=16;entryX=0.058;entryY=0.562;entryDx=0;entryDy=0;entryPerimeter=0;exitX=1;exitY=0.5;exitDx=0;exitDy=0;" edge="1" parent="1" source="0T_uLalzNDJKd-mAenRN-14" target="0T_uLalzNDJKd-mAenRN-5">
          <mxGeometry width="50" height="50" relative="1" as="geometry">
            <mxPoint x="-420" y="750" as="sourcePoint" />
            <mxPoint x="-370" y="700" as="targetPoint" />
          </mxGeometry>
        </mxCell>
        <mxCell id="0T_uLalzNDJKd-mAenRN-17" value="Component Diagram" style="text;strokeColor=none;fillColor=none;html=1;fontSize=24;fontStyle=1;verticalAlign=middle;align=center;" vertex="1" parent="1">
          <mxGeometry x="-820" y="10" width="340" height="40" as="geometry" />
        </mxCell>
        <mxCell id="hkmTkwp-2Hf0khm-vjTe-1" value="백신 동작 흐름도&lt;br&gt;&lt;ol&gt;&lt;li&gt;클라이언트에서 실행되는 문서파일을 탐지&lt;/li&gt;&lt;li&gt;실행된 문서파일이 이미 검사가 되었는지 조회&lt;/li&gt;&lt;li&gt;실행된 적이 없다면 정적 분석엔진으로 분석&lt;/li&gt;&lt;li&gt;정적 분석 엔진에서 매크로나 템플릿 탐지&lt;/li&gt;&lt;li&gt;탐지되지않는다면 백신서버로 전달&lt;/li&gt;&lt;li&gt;백신서버는 분석엔진을 통해 분석&lt;/li&gt;&lt;li&gt;분석 결과를 서버와 DB에 전달&lt;/li&gt;&lt;li&gt;서버는 엔진으로 결과 전달&lt;/li&gt;&lt;li&gt;엔진 빌드 서버에서 업데이트 내용을 업데이트 서버로 전달&lt;/li&gt;&lt;li&gt;정적 분석엔진은 클라이언트와 DB에 결과 전달&lt;/li&gt;&lt;li&gt;DB와 정적 분석 엔진 업데이트를 백신 클라이언트에 전달&lt;/li&gt;&lt;li&gt;백신 클라이언트는 업데이트를 검증 후 실행&lt;/li&gt;&lt;/ol&gt;" style="shape=note;whiteSpace=wrap;html=1;backgroundOutline=1;darkOpacity=0.05;align=left;" vertex="1" parent="1">
          <mxGeometry x="80" y="10" width="330" height="220" as="geometry" />
        </mxCell>
        <mxCell id="hkmTkwp-2Hf0khm-vjTe-2" value="" style="endArrow=classic;html=1;rounded=0;fontSize=16;entryX=0;entryY=0.5;entryDx=0;entryDy=0;entryPerimeter=0;exitX=1;exitY=0.5;exitDx=0;exitDy=0;" edge="1" parent="1" source="0T_uLalzNDJKd-mAenRN-7" target="w8OvyUt5W9H-utDS1qOa-2">
          <mxGeometry width="50" height="50" relative="1" as="geometry">
            <mxPoint x="-170" y="370" as="sourcePoint" />
            <mxPoint x="-120" y="320" as="targetPoint" />
          </mxGeometry>
        </mxCell>
        <mxCell id="hkmTkwp-2Hf0khm-vjTe-3" value="" style="endArrow=classic;html=1;rounded=0;fontSize=16;exitX=0.5;exitY=0;exitDx=0;exitDy=0;exitPerimeter=0;entryX=0.5;entryY=1;entryDx=0;entryDy=0;" edge="1" parent="1" source="jJ_AabKym4eATb_RBZtR-3" target="0T_uLalzNDJKd-mAenRN-5">
          <mxGeometry width="50" height="50" relative="1" as="geometry">
            <mxPoint x="-130" y="450" as="sourcePoint" />
            <mxPoint x="-80" y="400" as="targetPoint" />
          </mxGeometry>
        </mxCell>
      </root>
    </mxGraphModel>
  </diagram>
  <diagram id="_RbVQQr7HzK-Jk4RlWdS" name="Sequence Diagram">
    <mxGraphModel dx="1543" dy="918" grid="1" gridSize="10" guides="1" tooltips="1" connect="1" arrows="1" fold="1" page="1" pageScale="1" pageWidth="827" pageHeight="1169" math="0" shadow="0">
      <root>
        <mxCell id="0" />
        <mxCell id="1" parent="0" />
        <mxCell id="zJXGAsp93OLr8vQAvuPy-1" value="Sequence Diagram" style="text;strokeColor=none;fillColor=none;html=1;fontSize=24;fontStyle=1;verticalAlign=middle;align=center;" vertex="1" parent="1">
          <mxGeometry width="240" height="50" as="geometry" />
        </mxCell>
        <mxCell id="zJXGAsp93OLr8vQAvuPy-2" value="백신 서버" style="rounded=0;whiteSpace=wrap;html=1;fontSize=16;" vertex="1" parent="1">
          <mxGeometry x="279" y="160" width="120" height="60" as="geometry" />
        </mxCell>
        <mxCell id="zJXGAsp93OLr8vQAvuPy-3" value="백신 클라이언트" style="rounded=0;whiteSpace=wrap;html=1;fontSize=16;" vertex="1" parent="1">
          <mxGeometry x="549" y="160" width="120" height="60" as="geometry" />
        </mxCell>
        <mxCell id="zJXGAsp93OLr8vQAvuPy-4" value="테스트 서버" style="rounded=0;whiteSpace=wrap;html=1;fontSize=16;" vertex="1" parent="1">
          <mxGeometry x="19" y="160" width="120" height="60" as="geometry" />
        </mxCell>
        <mxCell id="zJXGAsp93OLr8vQAvuPy-5" value="" style="html=1;points=[];perimeter=orthogonalPerimeter;fontSize=16;" vertex="1" parent="1">
          <mxGeometry x="74" y="250" width="10" height="550" as="geometry" />
        </mxCell>
        <mxCell id="zJXGAsp93OLr8vQAvuPy-6" value="" style="html=1;points=[];perimeter=orthogonalPerimeter;fontSize=16;" vertex="1" parent="1">
          <mxGeometry x="334" y="250" width="10" height="550" as="geometry" />
        </mxCell>
        <mxCell id="zJXGAsp93OLr8vQAvuPy-7" value="" style="html=1;points=[];perimeter=orthogonalPerimeter;fontSize=16;" vertex="1" parent="1">
          <mxGeometry x="604" y="250" width="10" height="550" as="geometry" />
        </mxCell>
        <mxCell id="zJXGAsp93OLr8vQAvuPy-8" value="" style="endArrow=none;dashed=1;html=1;dashPattern=1 3;strokeWidth=2;rounded=0;fontSize=16;entryX=0.5;entryY=1;entryDx=0;entryDy=0;" edge="1" parent="1" source="zJXGAsp93OLr8vQAvuPy-6" target="zJXGAsp93OLr8vQAvuPy-2">
          <mxGeometry width="50" height="50" relative="1" as="geometry">
            <mxPoint x="389" y="430" as="sourcePoint" />
            <mxPoint x="439" y="380" as="targetPoint" />
          </mxGeometry>
        </mxCell>
        <mxCell id="zJXGAsp93OLr8vQAvuPy-9" value="" style="endArrow=none;dashed=1;html=1;dashPattern=1 3;strokeWidth=2;rounded=0;fontSize=16;entryX=0.5;entryY=1;entryDx=0;entryDy=0;" edge="1" parent="1" source="zJXGAsp93OLr8vQAvuPy-7" target="zJXGAsp93OLr8vQAvuPy-3">
          <mxGeometry width="50" height="50" relative="1" as="geometry">
            <mxPoint x="614" y="250" as="sourcePoint" />
            <mxPoint x="379" y="230" as="targetPoint" />
          </mxGeometry>
        </mxCell>
        <mxCell id="zJXGAsp93OLr8vQAvuPy-10" value="" style="endArrow=none;dashed=1;html=1;dashPattern=1 3;strokeWidth=2;rounded=0;fontSize=16;entryX=0.5;entryY=1;entryDx=0;entryDy=0;" edge="1" parent="1" source="zJXGAsp93OLr8vQAvuPy-5" target="zJXGAsp93OLr8vQAvuPy-4">
          <mxGeometry width="50" height="50" relative="1" as="geometry">
            <mxPoint x="389" y="430" as="sourcePoint" />
            <mxPoint x="439" y="380" as="targetPoint" />
          </mxGeometry>
        </mxCell>
        <mxCell id="zJXGAsp93OLr8vQAvuPy-11" value="" style="endArrow=classic;html=1;rounded=0;fontSize=16;exitX=0.178;exitY=0.037;exitDx=0;exitDy=0;exitPerimeter=0;" edge="1" parent="1" source="zJXGAsp93OLr8vQAvuPy-7">
          <mxGeometry width="50" height="50" relative="1" as="geometry">
            <mxPoint x="574" y="270" as="sourcePoint" />
            <mxPoint x="344" y="280" as="targetPoint" />
          </mxGeometry>
        </mxCell>
        <UserObject label="문서파일 검증 요청" placeholders="1" name="Variable" id="zJXGAsp93OLr8vQAvuPy-13">
          <mxCell style="text;html=1;strokeColor=none;fillColor=none;align=center;verticalAlign=middle;whiteSpace=wrap;overflow=hidden;fontSize=16;" vertex="1" parent="1">
            <mxGeometry x="409" y="250" width="130" height="20" as="geometry" />
          </mxCell>
        </UserObject>
        <mxCell id="HvpGZwDUFrkSOVk3i5xU-1" value="" style="endArrow=classic;html=1;rounded=0;fontSize=16;" edge="1" parent="1">
          <mxGeometry width="50" height="50" relative="1" as="geometry">
            <mxPoint x="349" y="290" as="sourcePoint" />
            <mxPoint x="599" y="310" as="targetPoint" />
          </mxGeometry>
        </mxCell>
        <UserObject label="요청 수락" placeholders="1" name="Variable" id="HvpGZwDUFrkSOVk3i5xU-2">
          <mxCell style="text;html=1;strokeColor=none;fillColor=none;align=center;verticalAlign=middle;whiteSpace=wrap;overflow=hidden;fontSize=16;" vertex="1" parent="1">
            <mxGeometry x="409" y="310" width="130" height="20" as="geometry" />
          </mxCell>
        </UserObject>
        <mxCell id="HvpGZwDUFrkSOVk3i5xU-7" value="" style="endArrow=classic;html=1;rounded=0;fontSize=16;" edge="1" parent="1">
          <mxGeometry width="50" height="50" relative="1" as="geometry">
            <mxPoint x="599" y="370" as="sourcePoint" />
            <mxPoint x="349" y="410" as="targetPoint" />
          </mxGeometry>
        </mxCell>
        <UserObject label="문서 파일 업로드" placeholders="1" name="Variable" id="HvpGZwDUFrkSOVk3i5xU-8">
          <mxCell style="text;html=1;strokeColor=none;fillColor=none;align=center;verticalAlign=middle;whiteSpace=wrap;overflow=hidden;fontSize=16;" vertex="1" parent="1">
            <mxGeometry x="409" y="360" width="130" height="20" as="geometry" />
          </mxCell>
        </UserObject>
        <mxCell id="HvpGZwDUFrkSOVk3i5xU-9" value="" style="endArrow=classic;html=1;rounded=0;fontSize=16;" edge="1" parent="1">
          <mxGeometry width="50" height="50" relative="1" as="geometry">
            <mxPoint x="349" y="420" as="sourcePoint" />
            <mxPoint x="599" y="440" as="targetPoint" />
          </mxGeometry>
        </mxCell>
        <UserObject label="결과 전달" placeholders="1" name="Variable" id="HvpGZwDUFrkSOVk3i5xU-10">
          <mxCell style="text;html=1;strokeColor=none;fillColor=none;align=center;verticalAlign=middle;whiteSpace=wrap;overflow=hidden;fontSize=16;" vertex="1" parent="1">
            <mxGeometry x="409" y="410" width="130" height="20" as="geometry" />
          </mxCell>
        </UserObject>
        <mxCell id="3Rg9jwuNF04kUCGegayv-1" value="" style="endArrow=classic;html=1;rounded=0;fontSize=16;" edge="1" parent="1">
          <mxGeometry width="50" height="50" relative="1" as="geometry">
            <mxPoint x="349" y="615" as="sourcePoint" />
            <mxPoint x="599" y="655" as="targetPoint" />
          </mxGeometry>
        </mxCell>
        <mxCell id="3Rg9jwuNF04kUCGegayv-3" value="" style="endArrow=classic;html=1;rounded=0;fontSize=16;" edge="1" parent="1">
          <mxGeometry width="50" height="50" relative="1" as="geometry">
            <mxPoint x="84" y="570" as="sourcePoint" />
            <mxPoint x="324" y="610" as="targetPoint" />
          </mxGeometry>
        </mxCell>
        <mxCell id="3Rg9jwuNF04kUCGegayv-4" value="최신 엔진 및 DB 전달" style="text;html=1;strokeColor=none;fillColor=none;align=center;verticalAlign=middle;whiteSpace=wrap;rounded=0;fontSize=16;" vertex="1" parent="1">
          <mxGeometry x="124" y="550" width="160" height="30" as="geometry" />
        </mxCell>
        <UserObject label="업데이트 전달" placeholders="1" name="Variable" id="3Rg9jwuNF04kUCGegayv-5">
          <mxCell style="text;html=1;strokeColor=none;fillColor=none;align=center;verticalAlign=middle;whiteSpace=wrap;overflow=hidden;fontSize=16;" vertex="1" parent="1">
            <mxGeometry x="409" y="605" width="130" height="20" as="geometry" />
          </mxCell>
        </UserObject>
        <mxCell id="Ez7DtccNT17cLs2Q5BxE-2" value="analysis Response" style="swimlane;fontStyle=0;childLayout=stackLayout;horizontal=1;startSize=26;fillColor=none;horizontalStack=0;resizeParent=1;resizeParentMax=0;resizeLast=0;collapsible=1;marginBottom=0;fontSize=16;" vertex="1" parent="1">
          <mxGeometry x="149" y="350" width="180" height="110" as="geometry">
            <mxRectangle x="250" y="320" width="150" height="30" as="alternateBounds" />
          </mxGeometry>
        </mxCell>
        <mxCell id="Ez7DtccNT17cLs2Q5BxE-3" value="+ file Type: std:String" style="text;strokeColor=none;fillColor=none;align=left;verticalAlign=top;spacingLeft=4;spacingRight=4;overflow=hidden;rotatable=0;points=[[0,0.5],[1,0.5]];portConstraint=eastwest;fontSize=16;" vertex="1" parent="Ez7DtccNT17cLs2Q5BxE-2">
          <mxGeometry y="26" width="180" height="26" as="geometry" />
        </mxCell>
        <mxCell id="Ez7DtccNT17cLs2Q5BxE-4" value="+ result: bool" style="text;strokeColor=none;fillColor=none;align=left;verticalAlign=top;spacingLeft=4;spacingRight=4;overflow=hidden;rotatable=0;points=[[0,0.5],[1,0.5]];portConstraint=eastwest;fontSize=16;" vertex="1" parent="Ez7DtccNT17cLs2Q5BxE-2">
          <mxGeometry y="52" width="180" height="26" as="geometry" />
        </mxCell>
        <mxCell id="Ez7DtccNT17cLs2Q5BxE-5" value="+ hash Data: std:String" style="text;strokeColor=none;fillColor=none;align=left;verticalAlign=top;spacingLeft=4;spacingRight=4;overflow=hidden;rotatable=0;points=[[0,0.5],[1,0.5]];portConstraint=eastwest;fontSize=16;" vertex="1" parent="Ez7DtccNT17cLs2Q5BxE-2">
          <mxGeometry y="78" width="180" height="32" as="geometry" />
        </mxCell>
        <mxCell id="Ez7DtccNT17cLs2Q5BxE-6" value="updateData" style="swimlane;fontStyle=0;childLayout=stackLayout;horizontal=1;startSize=26;fillColor=none;horizontalStack=0;resizeParent=1;resizeParentMax=0;resizeLast=0;collapsible=1;marginBottom=0;fontSize=16;" vertex="1" parent="1">
          <mxGeometry x="104" y="605" width="180" height="110" as="geometry">
            <mxRectangle x="250" y="320" width="150" height="30" as="alternateBounds" />
          </mxGeometry>
        </mxCell>
        <mxCell id="Ez7DtccNT17cLs2Q5BxE-9" value="+ Version: std:String" style="text;strokeColor=none;fillColor=none;align=left;verticalAlign=top;spacingLeft=4;spacingRight=4;overflow=hidden;rotatable=0;points=[[0,0.5],[1,0.5]];portConstraint=eastwest;fontSize=16;" vertex="1" parent="Ez7DtccNT17cLs2Q5BxE-6">
          <mxGeometry y="26" width="180" height="32" as="geometry" />
        </mxCell>
        <mxCell id="Ez7DtccNT17cLs2Q5BxE-7" value="+ patchFIle: Byte[]" style="text;strokeColor=none;fillColor=none;align=left;verticalAlign=top;spacingLeft=4;spacingRight=4;overflow=hidden;rotatable=0;points=[[0,0.5],[1,0.5]];portConstraint=eastwest;fontSize=16;" vertex="1" parent="Ez7DtccNT17cLs2Q5BxE-6">
          <mxGeometry y="58" width="180" height="26" as="geometry" />
        </mxCell>
        <mxCell id="Ez7DtccNT17cLs2Q5BxE-8" value="+ patchDb: Byte[]" style="text;strokeColor=none;fillColor=none;align=left;verticalAlign=top;spacingLeft=4;spacingRight=4;overflow=hidden;rotatable=0;points=[[0,0.5],[1,0.5]];portConstraint=eastwest;fontSize=16;" vertex="1" parent="Ez7DtccNT17cLs2Q5BxE-6">
          <mxGeometry y="84" width="180" height="26" as="geometry" />
        </mxCell>
        <mxCell id="Ez7DtccNT17cLs2Q5BxE-10" value="analysis Request" style="swimlane;fontStyle=0;childLayout=stackLayout;horizontal=1;startSize=26;fillColor=none;horizontalStack=0;resizeParent=1;resizeParentMax=0;resizeLast=0;collapsible=1;marginBottom=0;fontSize=16;" vertex="1" parent="1">
          <mxGeometry x="629" y="330" width="180" height="78" as="geometry">
            <mxRectangle x="250" y="320" width="150" height="30" as="alternateBounds" />
          </mxGeometry>
        </mxCell>
        <mxCell id="Ez7DtccNT17cLs2Q5BxE-11" value="+ file: Byte[]" style="text;strokeColor=none;fillColor=none;align=left;verticalAlign=top;spacingLeft=4;spacingRight=4;overflow=hidden;rotatable=0;points=[[0,0.5],[1,0.5]];portConstraint=eastwest;fontSize=16;" vertex="1" parent="Ez7DtccNT17cLs2Q5BxE-10">
          <mxGeometry y="26" width="180" height="26" as="geometry" />
        </mxCell>
        <mxCell id="Ez7DtccNT17cLs2Q5BxE-12" value="+ file Type: Std:String" style="text;strokeColor=none;fillColor=none;align=left;verticalAlign=top;spacingLeft=4;spacingRight=4;overflow=hidden;rotatable=0;points=[[0,0.5],[1,0.5]];portConstraint=eastwest;fontSize=16;" vertex="1" parent="Ez7DtccNT17cLs2Q5BxE-10">
          <mxGeometry y="52" width="180" height="26" as="geometry" />
        </mxCell>
        <mxCell id="Ez7DtccNT17cLs2Q5BxE-14" value="updateData" style="swimlane;fontStyle=0;childLayout=stackLayout;horizontal=1;startSize=26;fillColor=none;horizontalStack=0;resizeParent=1;resizeParentMax=0;resizeLast=0;collapsible=1;marginBottom=0;fontSize=16;" vertex="1" parent="1">
          <mxGeometry x="380" y="650" width="180" height="110" as="geometry">
            <mxRectangle x="250" y="320" width="150" height="30" as="alternateBounds" />
          </mxGeometry>
        </mxCell>
        <mxCell id="Ez7DtccNT17cLs2Q5BxE-15" value="+ Version: std:String" style="text;strokeColor=none;fillColor=none;align=left;verticalAlign=top;spacingLeft=4;spacingRight=4;overflow=hidden;rotatable=0;points=[[0,0.5],[1,0.5]];portConstraint=eastwest;fontSize=16;" vertex="1" parent="Ez7DtccNT17cLs2Q5BxE-14">
          <mxGeometry y="26" width="180" height="32" as="geometry" />
        </mxCell>
        <mxCell id="Ez7DtccNT17cLs2Q5BxE-16" value="+ patchFIle: Byte[]" style="text;strokeColor=none;fillColor=none;align=left;verticalAlign=top;spacingLeft=4;spacingRight=4;overflow=hidden;rotatable=0;points=[[0,0.5],[1,0.5]];portConstraint=eastwest;fontSize=16;" vertex="1" parent="Ez7DtccNT17cLs2Q5BxE-14">
          <mxGeometry y="58" width="180" height="26" as="geometry" />
        </mxCell>
        <mxCell id="Ez7DtccNT17cLs2Q5BxE-17" value="+ patchDb: Byte[]" style="text;strokeColor=none;fillColor=none;align=left;verticalAlign=top;spacingLeft=4;spacingRight=4;overflow=hidden;rotatable=0;points=[[0,0.5],[1,0.5]];portConstraint=eastwest;fontSize=16;" vertex="1" parent="Ez7DtccNT17cLs2Q5BxE-14">
          <mxGeometry y="84" width="180" height="26" as="geometry" />
        </mxCell>
        <mxCell id="Ez7DtccNT17cLs2Q5BxE-19" value="+ TimeStamp: TIME" style="text;html=1;strokeColor=none;fillColor=none;align=center;verticalAlign=middle;whiteSpace=wrap;rounded=0;fontSize=16;" vertex="1" parent="1">
          <mxGeometry x="104" y="715" width="160" height="30" as="geometry" />
        </mxCell>
        <mxCell id="Ez7DtccNT17cLs2Q5BxE-20" value="+ TimeStamp: TIME" style="text;html=1;strokeColor=none;fillColor=none;align=center;verticalAlign=middle;whiteSpace=wrap;rounded=0;fontSize=16;" vertex="1" parent="1">
          <mxGeometry x="379" y="760" width="160" height="30" as="geometry" />
        </mxCell>
      </root>
    </mxGraphModel>
  </diagram>
</mxfile>
